<?xml version="1.0" encoding="utf-8"?>
<!-- Generator: Adobe Illustrator 21.1.0, SVG Export Plug-In . SVG Version: 6.00 Build 0)  -->
<svg version="1.1" id="Capa_1" xmlns="http://www.w3.org/2000/svg" xmlns:xlink="http://www.w3.org/1999/xlink" x="0px" y="0px"
	 viewBox="0 0 72 72" style="enable-background:new 0 0 72 72;" xml:space="preserve">
<style type="text/css">
	.st0{clip-path:url(#SVGID_2_);fill:#735948;}
	.st1{clip-path:url(#SVGID_2_);fill:#44362D;}
	.st2{fill:#FFFFFF;}
</style>
<g>
	<g>
		<defs>
			<circle id="SVGID_1_" cx="35.5" cy="35.5" r="33.5"/>
		</defs>
		<clipPath id="SVGID_2_">
			<use xlink:href="#SVGID_1_"  style="overflow:visible;"/>
		</clipPath>
		<circle class="st0" cx="35.5" cy="35.5" r="33.5"/>
		<polygon class="st1" points="58.6,78.8 33.1,60.1 37.9,13.4 72.1,35.8 		"/>
	</g>
	<polygon class="st2" points="50.2,25.2 49.6,25.2 37.9,25.2 37.9,13.4 37.9,12.8 37.9,12.8 37.3,12.8 33.6,12.8 33.1,12.8 
		33.1,13.4 33.1,25.2 21.3,25.2 21.3,25.2 20.8,25.2 20.8,25.7 20.8,29.5 20.8,30 21.3,30 21.3,30 33.1,30 33.1,59.5 33.1,60.1 
		33.6,60.1 37.3,60.1 37.9,60.1 37.9,60.1 37.9,59.5 37.9,30 49.6,30 50.2,30 50.2,30 50.2,29.5 50.2,25.7 50.2,25.2 	"/>
</g>
</svg>
