<?xml version="1.0" encoding="utf-8"?>
<!-- Generator: Adobe Illustrator 21.1.0, SVG Export Plug-In . SVG Version: 6.00 Build 0)  -->
<svg version="1.1" id="Capa_1" xmlns="http://www.w3.org/2000/svg" xmlns:xlink="http://www.w3.org/1999/xlink" x="0px" y="0px"
	 viewBox="0 0 72 72" style="enable-background:new 0 0 72 72;" xml:space="preserve">
<style type="text/css">
	.st0{clip-path:url(#SVGID_2_);fill:#C50F02;}
	.st1{clip-path:url(#SVGID_2_);fill:#780902;}
	.st2{fill:#FFFFFF;}
	.st3{fill:none;stroke:#000000;stroke-width:0;stroke-linecap:round;stroke-linejoin:round;}
</style>
<g>
	<g>
		<defs>
			<circle id="SVGID_1_" cx="35.5" cy="35.6" r="33.5"/>
		</defs>
		<clipPath id="SVGID_2_">
			<use xlink:href="#SVGID_1_"  style="overflow:visible;"/>
		</clipPath>
		<circle class="st0" cx="35.5" cy="35.6" r="33.5"/>
		<polygon class="st1" points="42.5,78.8 11.7,50.3 43.8,48.9 45.4,42.8 49.4,42.7 50.4,25.1 60.4,18.5 85.1,47.7 		"/>
	</g>
	<g>
		<path class="st2" d="M52.2,42.6l-0.6-14.1c5-0.6,8.8-4.8,8.8-9.9h-20c0,5.1,3.8,9.3,8.8,9.9l-0.6,14.1c-0.5,0.1-0.9,0.1-1.3,0.2
			c2,1.5,3.3,3.2,3.8,4.9c5.1-0.1,9.1-0.8,9.1-1.7C60.1,45.1,56.7,43,52.2,42.6z"/>
		<path class="st2" d="M50.1,47.7c-0.5-1.6-1.9-3.2-4-4.7c-0.5-0.3-0.9-0.6-1.5-0.9c-0.2,0.5-0.3,1-0.5,1.5
			c-0.2,0.7-0.4,1.5-0.6,2.2c0,0.2-0.2,0.4-0.3,0.5c-0.1,0.1-0.2,0.1-0.4,0.1h0c-0.1,0-0.1,0-0.2,0c-0.4-0.1-0.6-0.5-0.5-0.8
			c0-0.4,0.1-0.7,0.2-1.1c0,0,0,0,0,0c0.2-1.1,0.4-2.2,0.6-3.3c-1.1-0.5-2.3-1-3.6-1.3c-0.4,1.6-0.8,3.2-1,4.9
			c0,0.2-0.2,0.4-0.3,0.5c-0.1,0.1-0.3,0.1-0.4,0.1h0c0,0-0.1,0-0.1,0c-0.4-0.1-0.6-0.4-0.6-0.8c0.1-1.7,0.3-3.5,0.6-5.2
			c-1.2-0.3-2.5-0.5-3.7-0.6c-0.3,1.8-0.6,3.5-0.7,5.3c0,0.2-0.1,0.5-0.3,0.6c-0.1,0.1-0.3,0.2-0.4,0.2h0c0,0-0.1,0-0.1,0
			c-0.4,0-0.7-0.4-0.7-0.8c0-1.8,0.1-3.6,0.3-5.4c-0.5,0-0.9,0-1.4,0c-0.8,0-1.6,0-2.4,0.1c-0.2,1.8-0.3,3.5-0.4,5.3
			c0,0.5-0.3,0.9-0.7,0.9h0c-0.4,0-0.7-0.4-0.7-0.8c-0.1-1.7-0.1-3.4,0-5.1c-0.7,0.1-1.3,0.2-2,0.3c-0.6,0.1-1.3,0.3-1.9,0.4
			c0,1.6,0,3.3,0,4.9c0,0.5-0.2,0.9-0.6,1c0,0-0.1,0-0.1,0h0c-0.1,0-0.3,0-0.4-0.1c-0.2-0.1-0.3-0.4-0.3-0.6
			c-0.2-1.5-0.3-3.1-0.4-4.6c-0.7,0.2-1.4,0.5-2,0.8c-0.6,0.3-1.2,0.6-1.8,0.9c0.1,1.5,0.2,2.9,0.4,4.3c0.1,0.5-0.2,1-0.5,1.1
			c-0.1,0-0.1,0-0.2,0h0c-0.1,0-0.2,0-0.3-0.1c-0.2-0.1-0.4-0.4-0.4-0.6c-0.2-1.2-0.4-2.5-0.6-3.8c-2.8,1.9-4.5,4.1-4.5,6.2
			c0,0.5,0.4,0.9,1.2,1.3c0.3,0.1,0.5,0.3,0.9,0.4c1,0.4,2.4,0.7,3.9,1c0.1,0,0.3,0,0.5,0.1c11.3,1.8,33.4,0.8,33.4-2.7
			C50.4,48.5,50.3,48.1,50.1,47.7L50.1,47.7z"/>
		<polygon class="st2" points="42.8,45.6 42.8,45.6 42.8,45.6 		"/>
		<polygon class="st2" points="35.5,31 35.5,31 35.5,31 35.5,31 35.5,31 		"/>
		<rect x="35.5" y="31" transform="matrix(0.5547 -0.8321 0.8321 0.5547 -9.978 43.2888)" width="0" height="0"/>
		<line class="st3" x1="35.5" y1="31" x2="35.5" y2="31"/>
		<path class="st3" d="M16.6,51.6c0.1,0,0.3,0,0.5,0.1"/>
		<path d="M22.4,44.6c-0.1-1.6-0.1-3.3,0-4.9c0.6-0.2,1.2-0.3,1.9-0.4c-0.6,0.1-1.3,0.3-1.9,0.4C22.3,41.3,22.3,42.9,22.4,44.6
			c0,0.5-0.2,0.9-0.6,1c0,0-0.1,0-0.1,0c0,0,0.1,0,0.1,0C22.1,45.5,22.4,45.1,22.4,44.6z"/>
		<path class="st3" d="M24.2,39.2c0.6-0.1,1.3-0.2,2-0.3"/>
		<path d="M27.7,44c0-1.8,0.2-3.5,0.4-5.3c0.8-0.1,1.6-0.1,2.4-0.1h0c-0.8,0-1.6,0-2.4,0.1C27.9,40.4,27.7,42.2,27.7,44
			c0,0.5-0.3,0.9-0.7,0.9h0C27.4,44.8,27.7,44.4,27.7,44z"/>
		<path d="M17.1,46.2c-0.2-1.4-0.3-2.9-0.4-4.3c0.6-0.3,1.2-0.6,1.8-0.9c-0.6,0.3-1.2,0.6-1.8,0.9C16.8,43.3,16.9,44.7,17.1,46.2
			c0.1,0.5-0.2,1-0.5,1.1c-0.1,0-0.1,0-0.2,0c0.1,0,0.1,0,0.2,0C17,47.1,17.2,46.7,17.1,46.2z"/>
		<path class="st3" d="M18.5,40.9c0.6-0.3,1.3-0.5,2-0.8"/>
		<path d="M10.6,49c0-2.1,1.7-4.3,4.5-6.2v0C12.3,44.6,10.6,46.9,10.6,49c0,0.5,0.4,0.9,1.2,1.3C11,49.9,10.6,49.5,10.6,49z"/>
		<path class="st3" d="M11.7,50.3c0.3,0.1,0.5,0.3,0.9,0.4"/>
		<path d="M32.7,44.7c0.2-0.1,0.3-0.4,0.3-0.6c0.1-1.8,0.4-3.6,0.7-5.3h0c-0.3,1.8-0.6,3.5-0.7,5.3C33,44.3,32.9,44.5,32.7,44.7
			c-0.1,0.1-0.3,0.2-0.4,0.2h0C32.5,44.8,32.6,44.8,32.7,44.7z"/>
		<path d="M38,45.3c0.2-0.1,0.3-0.3,0.3-0.5c0.3-1.7,0.6-3.3,1-4.9h0c-0.4,1.6-0.8,3.2-1,4.9C38.3,45,38.2,45.2,38,45.3
			c-0.1,0.1-0.3,0.1-0.4,0.1h0C37.8,45.4,37.9,45.4,38,45.3z"/>
		<path d="M43.3,46.3c0.2-0.1,0.3-0.3,0.3-0.5c0.2-0.8,0.4-1.5,0.6-2.2c0.2-0.5,0.3-1,0.5-1.5l0,0c-0.2,0.5-0.3,1-0.5,1.5
			c-0.2,0.7-0.4,1.5-0.6,2.2C43.6,46,43.5,46.2,43.3,46.3c-0.1,0.1-0.2,0.1-0.4,0.1h0C43,46.4,43.2,46.4,43.3,46.3z"/>
	</g>
</g>
</svg>
